<svg width="198" height="198" viewBox="0 0 198 198" fill="none" xmlns="http://www.w3.org/2000/svg">
<path d="M80.2379 48.0265C81.3156 44.1072 86.8739 44.1072 87.9516 48.0265L93.2171 67.176C93.5911 68.5359 94.6535 69.5984 96.0135 69.9723L115.163 75.2379C119.082 76.3156 119.082 81.8739 115.163 82.9516L96.0135 88.2171C94.6535 88.5911 93.5911 89.6535 93.2171 91.0135L87.9516 110.163C86.8739 114.082 81.3156 114.082 80.2379 110.163L74.9723 91.0135C74.5984 89.6535 73.5359 88.5911 72.176 88.2171L53.0265 82.9516C49.1072 81.8739 49.1072 76.3156 53.0265 75.2379L72.176 69.9723C73.5359 69.5984 74.5984 68.5359 74.9723 67.176L80.2379 48.0265Z" fill="#E2EFDB"/>
<path d="M124.706 83.1002C125.784 79.1808 131.342 79.1808 132.42 83.1002L134.309 89.9687C134.683 91.3286 135.745 92.3911 137.105 92.765L143.974 94.6537C147.893 95.7314 147.893 101.29 143.974 102.367L137.105 104.256C135.745 104.63 134.683 105.692 134.309 107.052L132.42 113.921C131.342 117.84 125.784 117.84 124.706 113.921L122.818 107.052C122.444 105.692 121.381 104.63 120.021 104.256L113.153 102.367C109.233 101.29 109.233 95.7314 113.153 94.6537L120.021 92.765C121.381 92.3911 122.444 91.3286 122.818 89.9687L124.706 83.1002Z" fill="#E2EFDB"/>
<path d="M100.307 110.613C101.449 106.817 106.825 106.817 107.967 110.613L111.317 121.746C111.723 123.094 112.807 124.13 114.173 124.473L125.024 127.2C129.057 128.213 129.057 133.945 125.024 134.958L114.173 137.685C112.807 138.028 111.723 139.063 111.317 140.412L107.967 151.544C106.825 155.341 101.449 155.341 100.307 151.544L96.9565 140.412C96.5508 139.063 95.4663 138.028 94.1009 137.685L83.25 134.958C79.2164 133.945 79.2164 128.213 83.25 127.2L94.1009 124.473C95.4663 124.13 96.5508 123.094 96.9565 121.746L100.307 110.613Z" fill="#E2EFDB"/>
<path d="M63.3535 121.556C63.6617 120.13 65.6962 120.13 66.0044 121.556C66.104 122.017 66.4364 122.393 66.8819 122.549L67.0506 122.608C68.5463 123.132 68.5463 125.247 67.0506 125.771L66.8819 125.83C66.4364 125.985 66.104 126.362 66.0044 126.823C65.6962 128.249 63.6617 128.249 63.3535 126.823C63.2539 126.362 62.9215 125.985 62.476 125.83L62.3073 125.771C60.8116 125.247 60.8116 123.132 62.3073 122.608L62.476 122.549C62.9215 122.393 63.2539 122.017 63.3535 121.556Z" fill="#E2EFDB"/>
<path d="M136.006 67.6927C136.314 66.2665 138.349 66.2665 138.657 67.6927C138.757 68.154 139.089 68.5303 139.534 68.6862L139.703 68.7452C141.199 69.2687 141.199 71.3839 139.703 71.9074L139.534 71.9664C139.089 72.1223 138.757 72.4986 138.657 72.96C138.349 74.3861 136.314 74.3861 136.006 72.96C135.907 72.4986 135.574 72.1223 135.129 71.9664L134.96 71.9074C133.464 71.3839 133.464 69.2687 134.96 68.7452L135.129 68.6862C135.574 68.5303 135.907 68.154 136.006 67.6927Z" fill="#E2EFDB"/>
<path d="M169.158 28.7479C151.314 10.9868 126.665 0 99.4345 0C44.981 0 0.829174 43.9406 0.829174 98.1483C0.829174 116.187 5.71798 133.083 14.2419 147.609L13.9898 147.146L0 198L52.2645 184.352C65.8696 191.873 82.1014 196.297 99.3748 196.297H99.4146C153.868 196.277 198 152.33 198 98.1285C198 71.0378 186.975 46.5156 169.151 28.7545L169.158 28.7479ZM99.4146 179.717H99.3814C83.9986 179.717 69.5975 175.492 57.3058 168.143L57.6773 168.348L54.6857 166.585L23.6746 174.686L31.9464 144.585L29.9962 141.501C22.1356 129.207 17.4657 114.226 17.4657 98.1549C17.4657 53.1117 54.155 16.5924 99.408 16.5924C144.661 16.5924 181.35 53.1117 181.35 98.1549C181.35 143.198 144.674 179.717 99.4146 179.717Z" fill="#4DA214"/>
</svg>
